<svg width="153" height="26" viewBox="0 0 153 26" fill="none" xmlns="http://www.w3.org/2000/svg">
<path d="M6.5127 10.5342L1.38428 9.99365C1.57764 9.09717 1.85449 8.39404 2.21484 7.88428C2.58398 7.36572 3.11133 6.91748 3.79688 6.53955C4.28906 6.26709 4.96582 6.05615 5.82715 5.90674C6.68848 5.75732 7.62012 5.68262 8.62207 5.68262C10.2305 5.68262 11.5225 5.7749 12.498 5.95947C13.4736 6.13525 14.2866 6.50879 14.937 7.08008C15.394 7.47559 15.7544 8.03809 16.0181 8.76758C16.2817 9.48828 16.4136 10.1782 16.4136 10.8374V17.0205C16.4136 17.6797 16.4531 18.1982 16.5322 18.5762C16.6201 18.9453 16.8047 19.4199 17.0859 20H12.0498C11.8477 19.6396 11.7158 19.3672 11.6543 19.1826C11.5928 18.9893 11.5312 18.6904 11.4697 18.2861C10.7666 18.9629 10.0679 19.4463 9.37354 19.7363C8.42432 20.123 7.32129 20.3164 6.06445 20.3164C4.39453 20.3164 3.12451 19.9297 2.25439 19.1562C1.39307 18.3828 0.962402 17.4292 0.962402 16.2954C0.962402 15.2319 1.27441 14.3574 1.89844 13.6719C2.52246 12.9863 3.67383 12.4766 5.35254 12.1426C7.36523 11.7383 8.67041 11.457 9.26807 11.2988C9.86572 11.1318 10.4985 10.9165 11.1665 10.6528C11.1665 9.99365 11.0303 9.53223 10.7578 9.26855C10.4854 9.00488 10.0063 8.87305 9.3208 8.87305C8.44189 8.87305 7.78271 9.01367 7.34326 9.29492C7.00049 9.51465 6.72363 9.92773 6.5127 10.5342ZM11.1665 13.3555C10.4282 13.6191 9.65918 13.8521 8.85938 14.0542C7.76953 14.3442 7.07959 14.6299 6.78955 14.9111C6.49072 15.2012 6.34131 15.5308 6.34131 15.8999C6.34131 16.3218 6.48633 16.6689 6.77637 16.9414C7.0752 17.2051 7.51025 17.3369 8.08154 17.3369C8.6792 17.3369 9.23291 17.1919 9.74268 16.9019C10.2612 16.6118 10.626 16.2603 10.8369 15.8472C11.0566 15.4253 11.1665 14.8804 11.1665 14.2124V13.3555ZM34.3828 20H29.373V17.7324C28.626 18.6641 27.8701 19.3276 27.1055 19.7231C26.3496 20.1187 25.418 20.3164 24.3105 20.3164C22.834 20.3164 21.6738 19.877 20.8301 18.998C19.9951 18.1104 19.5776 16.748 19.5776 14.9111V5.99902H24.9697V13.6982C24.9697 14.5771 25.1323 15.2012 25.4575 15.5703C25.7827 15.9395 26.2397 16.124 26.8286 16.124C27.4702 16.124 27.9932 15.8779 28.3975 15.3857C28.8105 14.8936 29.0171 14.0103 29.0171 12.7358V5.99902H34.3828V20ZM52.3784 0.672852V20H47.3555V17.9302C46.6523 18.8091 46.0107 19.4023 45.4307 19.71C44.6572 20.1143 43.7959 20.3164 42.8467 20.3164C40.9395 20.3164 39.4805 19.5913 38.4697 18.1411C37.4678 16.6909 36.9668 14.9287 36.9668 12.8545C36.9668 10.5342 37.5205 8.75879 38.6279 7.52832C39.7441 6.29785 41.1592 5.68262 42.873 5.68262C43.708 5.68262 44.4639 5.82324 45.1406 6.10449C45.8262 6.38574 46.4326 6.80762 46.96 7.37012V0.672852H52.3784ZM46.9995 12.96C46.9995 11.8613 46.7666 11.0439 46.3008 10.5078C45.835 9.96289 45.2461 9.69043 44.5342 9.69043C43.9102 9.69043 43.3872 9.94971 42.9653 10.4683C42.5435 10.9868 42.3325 11.8569 42.3325 13.0786C42.3325 14.2212 42.5479 15.0605 42.9785 15.5967C43.418 16.124 43.9585 16.3877 44.6001 16.3877C45.2856 16.3877 45.8569 16.1196 46.314 15.5835C46.771 15.0474 46.9995 14.1729 46.9995 12.96ZM55.8457 0.672852H61.2114V4.32471H55.8457V0.672852ZM55.8457 5.99902H61.2114V20H55.8457V5.99902ZM63.98 13.0391C63.98 10.9033 64.7007 9.14551 66.1421 7.76562C67.5835 6.37695 69.5303 5.68262 71.9824 5.68262C74.7861 5.68262 76.9043 6.49561 78.3369 8.12158C79.4883 9.43115 80.064 11.0439 80.064 12.96C80.064 15.1133 79.3477 16.8799 77.915 18.2598C76.4912 19.6309 74.5181 20.3164 71.9956 20.3164C69.7456 20.3164 67.9263 19.7451 66.5376 18.6025C64.8325 17.1875 63.98 15.333 63.98 13.0391ZM69.3589 13.0259C69.3589 14.2739 69.6094 15.1968 70.1104 15.7944C70.6201 16.3921 71.2573 16.6909 72.022 16.6909C72.7954 16.6909 73.4282 16.3965 73.9204 15.8076C74.4214 15.2188 74.6719 14.2739 74.6719 12.9731C74.6719 11.7603 74.4214 10.8594 73.9204 10.2705C73.4194 9.67285 72.7998 9.37402 72.0615 9.37402C71.2793 9.37402 70.6333 9.67725 70.1235 10.2837C69.6138 10.8813 69.3589 11.7954 69.3589 13.0259ZM82.6743 25.3262V5.99902H87.6973V8.06885C88.3916 7.19873 89.0288 6.60986 89.6089 6.30225C90.3911 5.88916 91.2568 5.68262 92.2061 5.68262C94.0781 5.68262 95.5239 6.39893 96.5435 7.83154C97.5718 9.26416 98.0859 11.0352 98.0859 13.1445C98.0859 15.4736 97.5278 17.2534 96.4116 18.4839C95.2954 19.7056 93.8848 20.3164 92.1797 20.3164C91.3535 20.3164 90.5977 20.1758 89.9121 19.8945C89.2354 19.6133 88.6289 19.1958 88.0928 18.6421V25.3262H82.6743ZM88.0532 13.0391C88.0532 14.1465 88.2861 14.9683 88.752 15.5044C89.2178 16.0405 89.8066 16.3086 90.5186 16.3086C91.1426 16.3086 91.6655 16.0537 92.0874 15.5439C92.5093 15.0254 92.7202 14.1509 92.7202 12.9204C92.7202 11.7866 92.5005 10.9561 92.061 10.4287C91.6216 9.89258 91.0854 9.62451 90.4526 9.62451C89.7671 9.62451 89.1958 9.89258 88.7388 10.4287C88.2817 10.9648 88.0532 11.835 88.0532 13.0391ZM100.657 0.672852H106.022V7.79199C106.752 7.03613 107.477 6.49561 108.198 6.17041C108.918 5.84521 109.771 5.68262 110.755 5.68262C112.214 5.68262 113.361 6.12646 114.196 7.01416C115.04 7.90186 115.462 9.26416 115.462 11.1011V20H110.07V12.3008C110.07 11.4219 109.907 10.8022 109.582 10.4419C109.257 10.0728 108.8 9.88818 108.211 9.88818C107.561 9.88818 107.033 10.1343 106.629 10.6265C106.225 11.1187 106.022 12.002 106.022 13.2764V20H100.657V0.672852ZM118.863 0.672852H124.229V4.32471H118.863V0.672852ZM118.863 5.99902H124.229V20H118.863V5.99902ZM127.841 0.672852H133.22V20H127.841V0.672852ZM152.191 14.3311H141.434C141.53 15.1924 141.763 15.834 142.132 16.2559C142.651 16.8623 143.328 17.1655 144.163 17.1655C144.69 17.1655 145.191 17.0337 145.666 16.77C145.956 16.603 146.268 16.3086 146.602 15.8867L151.888 16.3745C151.08 17.7808 150.104 18.7915 148.961 19.4067C147.819 20.0132 146.18 20.3164 144.044 20.3164C142.189 20.3164 140.73 20.0571 139.667 19.5386C138.604 19.0112 137.72 18.1807 137.017 17.0469C136.323 15.9043 135.976 14.564 135.976 13.0259C135.976 10.8374 136.674 9.06641 138.072 7.71289C139.478 6.35938 141.416 5.68262 143.886 5.68262C145.89 5.68262 147.472 5.98584 148.632 6.59229C149.792 7.19873 150.675 8.07764 151.282 9.229C151.888 10.3804 152.191 11.8789 152.191 13.7246V14.3311ZM146.733 11.7603C146.628 10.7231 146.347 9.98047 145.89 9.53223C145.441 9.08398 144.848 8.85986 144.11 8.85986C143.257 8.85986 142.576 9.19824 142.066 9.875C141.741 10.2969 141.535 10.9253 141.447 11.7603H146.733Z" fill="#FAFAFA"/>
</svg>
