<svg width="27" height="27" viewBox="0 0 27 27" fill="none" xmlns="http://www.w3.org/2000/svg">
<path d="M22.7026 2.8894H3.71504C3.25841 2.8894 2.8895 3.25832 2.8895 3.71495V22.7025C2.8895 23.1591 3.25841 23.528 3.71504 23.528H22.7026C23.1592 23.528 23.5281 23.1591 23.5281 22.7025V3.71495C23.5281 3.25832 23.1592 2.8894 22.7026 2.8894ZM20.3188 8.9133H18.6703C17.3778 8.9133 17.1276 9.5273 17.1276 10.4302V12.4193H20.213L19.8106 15.5331H17.1276V23.528H13.9105V15.5357H11.2198V12.4193H13.9105V10.1232C13.9105 7.45828 15.5384 6.00584 17.917 6.00584C19.0573 6.00584 20.035 6.09097 20.3214 6.12967V8.9133H20.3188Z" fill="#FAFAFA"/>
</svg>
