<svg width="27" height="27" viewBox="0 0 27 27" fill="none" xmlns="http://www.w3.org/2000/svg">
<path fill-rule="evenodd" clip-rule="evenodd" d="M8.79949 1.17348C10.0906 1.11404 10.5023 1.10083 13.7913 1.10083C17.0803 1.10083 17.4919 1.11514 18.782 1.17348C20.072 1.23182 20.9526 1.43765 21.7231 1.73595C22.53 2.04085 23.2619 2.51747 23.8673 3.13387C24.4837 3.73817 24.9593 4.46905 25.2631 5.27699C25.5625 6.0475 25.7672 6.92808 25.8266 8.21593C25.8861 9.50928 25.8993 9.92096 25.8993 13.2088C25.8993 16.4978 25.885 16.9095 25.8266 18.2006C25.7683 19.4885 25.5625 20.3691 25.2631 21.1396C24.9593 21.9476 24.483 22.6797 23.8673 23.2849C23.2619 23.9013 22.53 24.3768 21.7231 24.6806C20.9526 24.98 20.072 25.1847 18.7842 25.2442C17.4919 25.3036 17.0803 25.3168 13.7913 25.3168C10.5023 25.3168 10.0906 25.3025 8.79949 25.2442C7.51164 25.1858 6.63106 24.98 5.86055 24.6806C5.05253 24.3768 4.32043 23.9005 3.71523 23.2849C3.09924 22.6802 2.62256 21.9485 2.31841 21.1407C2.02011 20.3702 1.81538 19.4896 1.75594 18.2017C1.6965 16.9084 1.68329 16.4967 1.68329 13.2088C1.68329 9.91985 1.6976 9.50818 1.75594 8.21813C1.81428 6.92808 2.02011 6.0475 2.31841 5.27699C2.623 4.46914 3.10005 3.73742 3.71633 3.13277C4.32067 2.51692 5.05203 2.04024 5.85945 1.73595C6.62996 1.43765 7.51054 1.23292 8.79839 1.17348H8.79949ZM18.684 3.35292C17.4072 3.29458 17.0241 3.28247 13.7913 3.28247C10.5584 3.28247 10.1754 3.29458 8.89855 3.35292C7.71747 3.40685 7.07685 3.60388 6.64977 3.77009C6.0851 3.99024 5.68113 4.25111 5.25735 4.67489C4.85563 5.06571 4.54648 5.54147 4.35255 6.06731C4.18634 6.49439 3.98931 7.13502 3.93538 8.3161C3.87704 9.59294 3.86493 9.97599 3.86493 13.2088C3.86493 16.4417 3.87704 16.8247 3.93538 18.1016C3.98931 19.2826 4.18634 19.9233 4.35255 20.3503C4.54628 20.8754 4.85558 21.352 5.25735 21.7428C5.64811 22.1445 6.12472 22.4538 6.64977 22.6476C7.07685 22.8138 7.71747 23.0108 8.89855 23.0647C10.1754 23.1231 10.5573 23.1352 13.7913 23.1352C17.0252 23.1352 17.4072 23.1231 18.684 23.0647C19.8651 23.0108 20.5057 22.8138 20.9328 22.6476C21.4975 22.4274 21.9014 22.1665 22.3252 21.7428C22.727 21.352 23.0363 20.8754 23.23 20.3503C23.3962 19.9233 23.5933 19.2826 23.6472 18.1016C23.7055 16.8247 23.7176 16.4417 23.7176 13.2088C23.7176 9.97599 23.7055 9.59294 23.6472 8.3161C23.5933 7.13502 23.3962 6.49439 23.23 6.06731C23.0099 5.50264 22.749 5.09867 22.3252 4.67489C21.9344 4.2732 21.4586 3.96405 20.9328 3.77009C20.5057 3.60388 19.8651 3.40685 18.684 3.35292ZM12.2448 16.9414C13.1085 17.3009 14.0702 17.3494 14.9657 17.0787C15.8612 16.8079 16.6349 16.2346 17.1547 15.4568C17.6745 14.6789 17.9081 13.7447 17.8156 12.8138C17.7231 11.8828 17.3103 11.0128 16.6477 10.3524C16.2253 9.93029 15.7145 9.60704 15.1522 9.40598C14.5898 9.20491 13.9899 9.13103 13.3956 9.18965C12.8012 9.24827 12.2273 9.43793 11.7151 9.74498C11.2029 10.052 10.7651 10.4688 10.4333 10.9654C10.1015 11.4619 9.88391 12.0259 9.79621 12.6166C9.70852 13.2073 9.75288 13.8101 9.92613 14.3817C10.0994 14.9532 10.3972 15.4792 10.7981 15.9218C11.199 16.3644 11.6931 16.7126 12.2448 16.9414ZM9.39058 8.80812C9.96849 8.23021 10.6546 7.77179 11.4096 7.45903C12.1647 7.14626 12.974 6.98529 13.7913 6.98529C14.6086 6.98529 15.4179 7.14626 16.1729 7.45903C16.928 7.77179 17.6141 8.23021 18.192 8.80812C18.7699 9.38603 19.2283 10.0721 19.5411 10.8272C19.8538 11.5823 20.0148 12.3915 20.0148 13.2088C20.0148 14.0261 19.8538 14.8354 19.5411 15.5905C19.2283 16.3455 18.7699 17.0316 18.192 17.6095C17.0249 18.7767 15.4419 19.4324 13.7913 19.4324C12.1407 19.4324 10.5577 18.7767 9.39058 17.6095C8.22344 16.4424 7.56775 14.8594 7.56775 13.2088C7.56775 11.5582 8.22344 9.97526 9.39058 8.80812ZM21.3951 7.91213C21.5383 7.77704 21.653 7.61458 21.7323 7.43438C21.8116 7.25419 21.8539 7.05991 21.8568 6.86306C21.8596 6.66621 21.823 6.47078 21.749 6.28835C21.675 6.10592 21.5651 5.94019 21.4259 5.80098C21.2867 5.66177 21.1209 5.5519 20.9385 5.47789C20.7561 5.40388 20.5607 5.36722 20.3638 5.37009C20.167 5.37296 19.9727 5.4153 19.7925 5.4946C19.6123 5.5739 19.4498 5.68854 19.3147 5.83175C19.052 6.11027 18.9082 6.48022 18.9137 6.86306C18.9193 7.2459 19.0739 7.6115 19.3446 7.88224C19.6154 8.15298 19.981 8.30754 20.3638 8.31312C20.7466 8.3187 21.1166 8.17486 21.3951 7.91213Z" fill="#FAFAFA"/>
</svg>
