<svg width="24" height="21" viewBox="0 0 24 21" fill="none" xmlns="http://www.w3.org/2000/svg">
<path d="M22.4331 14.8217H7.31294L8.07212 13.2754L20.6862 13.2525C21.1127 13.2525 21.4784 12.9479 21.5545 12.5264L23.3014 2.74844C23.3471 2.49199 23.2786 2.22793 23.111 2.02734C23.0282 1.92863 22.9249 1.84911 22.8082 1.7943C22.6916 1.7395 22.5645 1.71072 22.4356 1.70996L6.38872 1.65664L6.25161 1.01172C6.16528 0.600391 5.79458 0.300781 5.3731 0.300781H1.45024C1.21253 0.300781 0.984559 0.395211 0.816472 0.563298C0.648385 0.731385 0.553955 0.95936 0.553955 1.19707C0.553955 1.43478 0.648385 1.66276 0.816472 1.83084C0.984559 1.99893 1.21253 2.09336 1.45024 2.09336H4.64692L5.24614 4.94219L6.72134 12.0846L4.82212 15.1848C4.72349 15.3179 4.66408 15.476 4.65062 15.6411C4.63716 15.8062 4.67018 15.9718 4.74595 16.1191C4.89829 16.4213 5.20552 16.6117 5.54575 16.6117H7.14028C6.80035 17.0632 6.61674 17.6132 6.61724 18.1783C6.61724 19.6154 7.7852 20.7834 9.22231 20.7834C10.6594 20.7834 11.8274 19.6154 11.8274 18.1783C11.8274 17.6121 11.6395 17.0611 11.3043 16.6117H15.3948C15.0548 17.0632 14.8712 17.6132 14.8717 18.1783C14.8717 19.6154 16.0397 20.7834 17.4768 20.7834C18.9139 20.7834 20.0819 19.6154 20.0819 18.1783C20.0819 17.6121 19.894 17.0611 19.5588 16.6117H22.4356C22.9282 16.6117 23.3319 16.2105 23.3319 15.7154C23.3304 15.478 23.2351 15.2507 23.0667 15.0833C22.8983 14.9159 22.6705 14.8218 22.4331 14.8217ZM6.76196 3.42383L21.3819 3.47207L19.9499 11.4904L8.46567 11.5107L6.76196 3.42383ZM9.22231 18.9807C8.78052 18.9807 8.41997 18.6201 8.41997 18.1783C8.41997 17.7365 8.78052 17.376 9.22231 17.376C9.66411 17.376 10.0247 17.7365 10.0247 18.1783C10.0247 18.3911 9.94013 18.5952 9.78966 18.7457C9.63919 18.8961 9.43511 18.9807 9.22231 18.9807ZM17.4768 18.9807C17.035 18.9807 16.6745 18.6201 16.6745 18.1783C16.6745 17.7365 17.035 17.376 17.4768 17.376C17.9186 17.376 18.2792 17.7365 18.2792 18.1783C18.2792 18.3911 18.1946 18.5952 18.0441 18.7457C17.8937 18.8961 17.6896 18.9807 17.4768 18.9807Z" fill="white"/>
</svg>
