<svg width="28" height="27" viewBox="0 0 28 27" fill="none" xmlns="http://www.w3.org/2000/svg">
<path d="M26.8158 5.43423C25.8966 5.8415 24.9093 6.11668 23.8713 6.24106C24.9423 5.60021 25.7436 4.59159 26.1256 3.40339C25.1194 4.00107 24.0181 4.42178 22.8696 4.64721C22.0974 3.82262 21.0744 3.27607 19.9597 3.09241C18.8449 2.90875 17.7007 3.09826 16.7047 3.63152C15.7087 4.16478 14.9166 5.01195 14.4515 6.04151C13.9863 7.07106 13.874 8.2254 14.1321 9.3253C12.0932 9.22293 10.0986 8.69299 8.27778 7.76987C6.45695 6.84675 4.85057 5.55109 3.5629 3.96696C3.12261 4.72646 2.86944 5.60705 2.86944 6.54487C2.86895 7.38912 3.07685 8.22044 3.4747 8.96507C3.87256 9.7097 4.44806 10.3446 5.15014 10.8135C4.33591 10.7876 3.53964 10.5676 2.82761 10.1718V10.2378C2.82753 11.4219 3.23712 12.5696 3.98688 13.486C4.73664 14.4025 5.78039 15.0314 6.94103 15.2659C6.18569 15.4703 5.39378 15.5005 4.6251 15.354C4.95256 16.3728 5.59043 17.2638 6.44941 17.9021C7.30838 18.5404 8.34546 18.8941 9.41546 18.9137C7.59908 20.3396 5.35586 21.1131 3.04666 21.1097C2.6376 21.1098 2.2289 21.0859 1.82265 21.0381C4.16662 22.5452 6.89517 23.3451 9.68184 23.342C19.1151 23.342 24.272 15.529 24.272 8.75292C24.272 8.53278 24.2665 8.31043 24.2566 8.09029C25.2596 7.36488 26.1255 6.4666 26.8135 5.43753L26.8158 5.43423Z" fill="#FAFAFA"/>
</svg>
